<svg width="40" height="48" viewBox="0 0 40 48" fill="none" xmlns="http://www.w3.org/2000/svg">
<g clip-path="url(#clip0_2118_1448)">
<path d="M3.86386 5.56251C3.86386 12.0932 3.76654 18.6134 3.55391 25.1412C3.36211 31.0294 2.78982 37.1575 3.26118 43.0495C3.98211 52.0612 3.49548 24.9593 3.07176 15.9287C2.92623 12.827 2.82314 10.0013 3.94996 7.04339C5.22482 3.69689 7.88841 2.23731 11.0444 0.896008C12.2292 0.392477 11.4366 6.64641 11.3888 7.19837C10.9816 11.8973 9.82871 16.5419 7.8588 20.8362C6.91304 22.898 5.7204 25.3501 3.58835 26.4326C2.77055 26.8478 1.82232 26.4863 0.970975 26.777C0.215064 27.0351 3.90194 25.0564 4.31157 24.8484C7.1625 23.4006 10.3483 21.3424 13.4724 20.578C14.3259 20.3691 16.5392 20.163 15.8143 21.7489C14.4763 24.6758 12.5229 27.3155 10.6484 29.9109C9.53732 31.4494 9.55297 32.0836 11.2683 30.5136C13.2323 28.7161 14.7896 26.6301 16.5375 24.6418C17.9901 22.9895 17.7202 25.669 17.8117 26.6048C18.1317 29.8756 23.0451 22.4347 23.2358 22.1794C25.5898 19.0286 28.9269 14.9761 29.5382 10.9006C30.0469 7.50957 27.5532 9.22737 26.8004 11.4861C25.08 16.6468 24.5984 22.6606 24.0107 27.9824C23.3935 33.5725 22.4194 39.9966 23.4942 45.6496C23.7999 47.2579 24.4757 47.417 25.0956 46.0457C26.0117 44.0191 26.4365 41.6921 26.9725 39.5539C27.4403 37.688 32.9958 21.6557 27.6269 21.3873C23.8844 21.2001 20.9638 23.4289 18.5694 26.1227C16.6711 28.2582 14.0365 31.8916 14.4711 35.0424C14.6791 36.5498 23.857 32.5048 23.9763 32.4595C24.6369 32.2088 39.1214 26.8315 39.1295 26.8803C39.1525 27.0185 38.3575 28.232 38.2685 28.4989" stroke="white" stroke-width="2" stroke-linecap="round"/>
</g>
<defs>
<clipPath id="clip0_2118_1448">
<rect width="40" height="47.8261" fill="white"/>
</clipPath>
</defs>
</svg>
