<svg width="632" height="632" viewBox="0 0 632 632" fill="none" xmlns="http://www.w3.org/2000/svg">
<circle cx="316" cy="316" r="316" fill="#FFE000"/>
<circle cx="316" cy="316" r="278.5" fill="#FFE000" stroke="black" stroke-width="15"/>
<path fill-rule="evenodd" clip-rule="evenodd" d="M240.888 212.727C235.804 215.323 231.285 221.964 228.26 231.285C226.048 238.102 225.511 241.924 225.102 253.74C224.681 265.926 224.919 269.315 226.755 277.24C230.38 292.883 237.587 303 245.105 303C257.393 303 266.857 279.844 265.54 253C264.174 225.15 252.836 206.627 240.888 212.727ZM382.24 212.414C373.586 216.243 367.181 232.217 366.167 252.5C364.503 285.758 378.288 310.565 392.963 300.721C397.633 297.588 403.369 285.841 405.458 275.132C407.734 263.463 407.029 244.493 403.899 233.164C399.467 217.124 390.661 208.687 382.24 212.414ZM151.185 341.439C138.926 345.273 129.673 356.35 128.177 368.983C127.486 374.81 128.766 377 132.861 377C136.154 377 137.566 375.516 138.023 371.577C138.209 369.97 138.811 368.532 139.361 368.383C139.911 368.234 143.061 371.993 146.361 376.736C157.804 393.186 178.201 412.641 197.445 425.463C260.618 467.553 347.617 471.501 414.861 435.327C425.65 429.523 439.117 420.554 448.26 413.083C459.109 404.218 476.648 385.452 483.678 375.187C487.139 370.134 490.139 366 490.345 366C491.707 366 493.861 369.597 493.861 371.871C493.861 375.346 495.526 377 499.026 377C506.891 377 504.34 360.899 494.842 350.595C485.814 340.801 468.047 336.425 466.258 343.556C465.468 346.701 468.176 350 471.547 350C477.163 350 474.492 356.12 461.953 371.988C434.391 406.866 391.133 431.193 343.361 438.68C328.437 441.019 300.258 441.016 285.361 438.675C245.18 432.359 209.479 414.971 181.53 388.105C170.588 377.587 154.861 357.276 154.861 353.664C154.861 351.857 157.79 350 160.64 350C162.86 350 165.861 347.026 165.861 344.826C165.861 340.421 159.292 338.905 151.185 341.439Z" fill="black"/>
</svg>
