<svg width="46" height="55" viewBox="0 0 46 55" fill="none" xmlns="http://www.w3.org/2000/svg">
<path d="M4.44393 6.39962C4.44393 13.9099 4.33201 21.4081 4.08748 28.9151C3.86692 35.6865 3.20878 42.7339 3.75084 49.5097C4.57992 59.8731 4.02029 28.7059 3.53301 18.3207C3.36565 14.7538 3.2471 11.5042 4.54294 8.10263C6.00903 4.25415 9.07216 2.57564 12.7016 1.03314C14.0641 0.454079 13.1526 7.6461 13.0976 8.28086C12.6293 13.6846 11.3035 19.0259 9.03811 23.9644C7.95049 26.3354 6.57895 29.1554 4.12709 30.4002C3.18662 30.8777 2.09616 30.462 1.11711 30.7963C0.247812 31.0931 4.48772 28.8176 4.95879 28.5784C8.23736 26.9134 11.901 24.5465 15.4937 23.6674C16.4753 23.4272 19.0206 23.1902 18.1869 25.014C16.6482 28.3799 14.4018 31.4156 12.2461 34.4003C10.9684 36.1695 10.9864 36.8989 12.959 35.0934C15.2176 33.0263 17.0085 30.6273 19.0186 28.3408C20.6891 26.4406 20.3787 29.5221 20.4839 30.5983C20.8519 34.3597 26.5024 25.8026 26.7217 25.509C29.4287 21.8856 33.2664 17.2252 33.9694 12.5384C34.5544 8.63874 31.6867 10.6142 30.8209 13.2117C28.8425 19.1466 28.2886 26.0624 27.6128 32.1825C26.903 38.6111 25.7828 45.9988 27.0188 52.4998C27.3704 54.3493 28.1475 54.5323 28.8604 52.9553C29.914 50.6247 30.4025 47.9487 31.0189 45.4897C31.5568 43.3439 37.9456 24.9068 31.7714 24.5981C27.4675 24.3829 24.1089 26.946 21.3553 30.0438C19.1722 32.4997 16.1425 36.6781 16.6423 40.3015C16.8814 42.035 27.436 37.3832 27.5732 37.3311C28.3329 37.0428 44.9901 30.8589 44.9994 30.9151C45.0259 31.074 44.1116 32.4695 44.0093 32.7765" stroke="white" stroke-width="1.6" stroke-linecap="round"/>
</svg>
